# This file is brought to you by Roblox Corporation
# Generated by Roblox Studio

mtllib exhole.mtl

g Hole1

v 1.50581 -1.9807 -8.12129 
v 1.38503 -2.09844 -8.40089 
v 1.36313 -2.06753 -8.40243 
v 1.38503 -2.09844 -8.40089 
v 1.50581 -1.9807 -8.12129 
v 1.41178 -2.12516 -8.39734 
v 1.50581 -1.9807 -8.12129 
v 1.36313 -2.06753 -8.40243 
v 1.34673 -2.0334 -8.40233 
v 1.41178 -2.12516 -8.39734 
v 1.50581 -1.9807 -8.12129 
v 1.44262 -2.1469 -8.39264 
v 1.50581 -1.9807 -8.12129 
v 1.34673 -2.0334 -8.40233 
v 1.33651 -1.997 -8.40093 
v 1.44262 -2.1469 -8.39264 
v 1.50581 -1.9807 -8.12129 
v 1.47682 -2.16283 -8.3876 
v 1.50581 -1.9807 -8.12129 
v 1.33651 -1.997 -8.40093 
v 1.33594 -1.95947 -8.39771 
v 1.50581 -1.9807 -8.12129 
v 1.51322 -2.17261 -8.38201 
v 1.50581 -1.9807 -8.12129 
v 1.33594 -1.95947 -8.39771 
v 1.33537 -1.92193 -8.39452 
v 1.50581 -1.9807 -8.12129 
v 1.55066 -2.17587 -8.37568 
v 1.50581 -1.9807 -8.12129 
v 1.33537 -1.92193 -8.39452 
v 1.3445 -1.88554 -8.38969 
v 1.55066 -2.17587 -8.37568 
v 1.50581 -1.9807 -8.12129 
v 1.58797 -2.17261 -8.3688 
v 1.50581 -1.9807 -8.12129 
v 1.3445 -1.88554 -8.38969 
v 1.35987 -1.8514 -8.38396 
v 1.58797 -2.17261 -8.3688 
v 1.50581 -1.9807 -8.12129 
v 1.62406 -2.16284 -8.36155 
v 1.50581 -1.9807 -8.12129 
v 1.35987 -1.8514 -8.38396 
v 1.38091 -1.82053 -8.37751 
v 1.62406 -2.16284 -8.36155 
v 1.50581 -1.9807 -8.12129 
v 1.65784 -2.14694 -8.35416 
v 1.50581 -1.9807 -8.12129 
v 1.38091 -1.82053 -8.37751 
v 1.40705 -1.79391 -8.37055 
v 1.50581 -1.9807 -8.12129 
v 1.68823 -2.12531 -8.34688 
v 1.50581 -1.9807 -8.12129 
v 1.40705 -1.79391 -8.37055 
v 1.43744 -1.77228 -8.36326 
v 1.68823 -2.12531 -8.34688 
v 1.50581 -1.9807 -8.12129 
v 1.71437 -2.09869 -8.3399 
v 1.50581 -1.9807 -8.12129 
v 1.43744 -1.77228 -8.36326 
v 1.47123 -1.75638 -8.35589 
v 1.71437 -2.09869 -8.3399 
v 1.50581 -1.9807 -8.12129 
v 1.7354 -2.06782 -8.33347 
v 1.50581 -1.9807 -8.12129 
v 1.47123 -1.75638 -8.35589 
v 1.50733 -1.74661 -8.34864 
v 1.7354 -2.06782 -8.33347 
v 1.50581 -1.9807 -8.12129 
v 1.75077 -2.03369 -8.32775 
v 1.50581 -1.9807 -8.12129 
v 1.50733 -1.74661 -8.34864 
v 1.54468 -1.74335 -8.34174 
v 1.75077 -2.03369 -8.32775 
v 1.50581 -1.9807 -8.12129 
v 1.76321 -1.99729 -8.32234 
v 1.50581 -1.9807 -8.12129 
v 1.54468 -1.74335 -8.34174 
v 1.58209 -1.74661 -8.3354 
v 1.76321 -1.99729 -8.32234 
v 1.50581 -1.9807 -8.12128 
v 1.76265 -1.95976 -8.31911 
v 1.50581 -1.9807 -8.12129 
v 1.58209 -1.74661 -8.3354 
v 1.61847 -1.75639 -8.32984 
v 1.76265 -1.95976 -8.31912 
v 1.50581 -1.9807 -8.12129 
v 1.76208 -1.92223 -8.31589 
v 1.50581 -1.9807 -8.12129 
v 1.61847 -1.75639 -8.32984 
v 1.65273 -1.77229 -8.32518 
v 1.76208 -1.92222 -8.31592 
v 1.50581 -1.9807 -8.12129 
v 1.74861 -1.88579 -8.31549 
v 1.50581 -1.9807 -8.12129 
v 1.65273 -1.77229 -8.32518 
v 1.68377 -1.79393 -8.32159 
v 1.74861 -1.88579 -8.31549 
v 1.50581 -1.9807 -8.12129 
v 1.73241 -1.85156 -8.31649 
v 1.50581 -1.9807 -8.12129 
v 1.68377 -1.79393 -8.32159 
v 1.71065 -1.82058 -8.31879 
v 1.73241 -1.85156 -8.31649 
v 1.50581 -1.9807 -8.12129 
v 1.71065 -1.82058 -8.31879 

vn 0.173228 0.0866142 -0.984252 
vn 0.173228 0.0866142 -0.984252 
vn 0.173228 0.0866142 -0.984252 
vn 0.173228 0.0866142 -0.984252 
vn 0.173228 0.0866142 -0.984252 
vn 0.173228 0.0866142 -0.984252 
vn 0.173228 0.0866142 -0.984252 
vn 0.173228 0.0866142 -0.984252 
vn 0.173228 0.0866142 -0.984252 
vn 0.173228 0.0866142 -0.984252 
vn 0.173228 0.0866142 -0.984252 
vn 0.173228 0.0866142 -0.984252 
vn 0.173228 0.0866142 -0.984252 
vn 0.173228 0.0866142 -0.984252 
vn 0.173228 0.0866142 -0.984252 
vn 0.173228 0.0866142 -0.984252 
vn 0.173228 0.0866142 -0.984252 
vn 0.173228 0.0866142 -0.984252 
vn 0.173228 0.0866142 -0.984252 
vn 0.173228 0.0866142 -0.984252 
vn 0.173228 0.0866142 -0.984252 
vn 0.173228 0.0866142 -0.984252 
vn 0.173228 0.0866142 -0.984252 
vn 0.173228 0.0866142 -0.984252 
vn 0.173228 0.0866142 -0.984252 
vn 0.173228 0.0866142 -0.984252 
vn 0.173228 0.0866142 -0.984252 
vn 0.173228 0.0866142 -0.984252 
vn 0.173228 0.0866142 -0.984252 
vn 0.173228 0.0866142 -0.984252 
vn 0.173228 0.0866142 -0.984252 
vn 0.173228 0.0866142 -0.984252 
vn 0.173228 0.0866142 -0.984252 
vn 0.173228 0.0866142 -0.984252 
vn 0.173228 0.0866142 -0.984252 
vn 0.173228 0.0866142 -0.984252 
vn 0.173228 0.0866142 -0.984252 
vn 0.173228 0.0866142 -0.984252 
vn 0.173228 0.0866142 -0.984252 
vn 0.173228 0.0866142 -0.984252 
vn 0.173228 0.0866142 -0.984252 
vn 0.173228 0.0866142 -0.984252 
vn 0.173228 0.0866142 -0.984252 
vn 0.173228 0.0866142 -0.984252 
vn 0.173228 0.0866142 -0.984252 
vn 0.173228 0.0866142 -0.984252 
vn 0.173228 0.0866142 -0.984252 
vn 0.173228 0.0866142 -0.984252 
vn 0.173228 0.0866142 -0.984252 
vn 0.173228 0.0866142 -0.984252 
vn 0.173228 0.0866142 -0.984252 
vn 0.173228 0.0866142 -0.984252 
vn 0.173228 0.0866142 -0.984252 
vn 0.173228 0.0866142 -0.984252 
vn 0.173228 0.0866142 -0.984252 
vn 0.173228 0.0866142 -0.984252 
vn 0.173228 0.0866142 -0.984252 
vn 0.173228 0.0866142 -0.984252 
vn 0.173228 0.0866142 -0.984252 
vn 0.173228 0.0866142 -0.984252 
vn 0.173228 0.0866142 -0.984252 
vn 0.173228 0.0866142 -0.984252 
vn 0.173228 0.0866142 -0.984252 
vn 0.173228 0.0866142 -0.984252 
vn 0.173228 0.0866142 -0.984252 
vn 0.173228 0.0866142 -0.984252 
vn 0.173228 0.0866142 -0.984252 
vn 0.173228 0.0866142 -0.984252 
vn 0.173228 0.0866142 -0.984252 
vn 0.173228 0.0866142 -0.984252 
vn 0.173228 0.0866142 -0.984252 
vn 0.173228 0.0866142 -0.984252 
vn 0.173228 0.0866142 -0.984252 
vn 0.173228 0.0866142 -0.984252 
vn 0.173228 0.0866142 -0.984252 
vn 0.173228 0.0866142 -0.984252 
vn 0.173228 0.0866142 -0.984252 
vn 0.173228 0.0866142 -0.984252 
vn 0.173228 0.0866142 -0.984252 
vn 0.173228 0.0866142 -0.984252 
vn 0.173228 0.0866142 -0.984252 
vn 0.173228 0.0866142 -0.984252 
vn 0.173228 0.0866142 -0.984252 
vn 0.173228 0.0866142 -0.984252 
vn 0.173228 0.0866142 -0.984252 
vn 0.173228 0.0866142 -0.984252 
vn 0.173228 0.0866142 -0.984252 
vn 0.173228 0.0866142 -0.984252 
vn 0.173228 0.0866142 -0.984252 
vn 0.173228 0.0866142 -0.984252 
vn 0.173228 0.0866142 -0.984252 
vn 0.173228 0.0866142 -0.984252 
vn 0.173228 0.0866142 -0.984252 
vn 0.173228 0.0866142 -0.984252 
vn 0.173228 0.0866142 -0.984252 
vn 0.173228 0.0866142 -0.984252 
vn 0.173228 0.0866142 -0.984252 
vn 0.173228 0.0866142 -0.984252 
vn 0.173228 0.0866142 -0.984252 
vn 0.173228 0.0866142 -0.984252 
vn 0.173228 0.0866142 -0.984252 
vn 0.173228 0.0866142 -0.984252 
vn 0.173228 0.0866142 -0.984252 
vn 0.173228 0.0866142 -0.984252 
vn 0.173228 0.0866142 -0.984252 

vt 56.0002 -47 
vt 56.0211 -47.0174 
vt 56.0239 -47.0136 
vt 56.0211 -47.0174 
vt 56.0002 -47 
vt 56.0178 -47.0208 
vt 56.0002 -47 
vt 56.0239 -47.0136 
vt 56.0259 -47.0093 
vt 56.0178 -47.0208 
vt 56.0002 -47 
vt 56.0139 -47.0235 
vt 56.0002 -47 
vt 56.0259 -47.0093 
vt 56.0271 -47.0047 
vt 56.0139 -47.0235 
vt 56.0002 -47 
vt 56.0096 -47.0255 
vt 56.0002 -47 
vt 56.0271 -47.0047 
vt 56.0271 -47 
vt 56.0002 -47 
vt 56.005 -47.0267 
vt 56.0002 -47 
vt 56.0271 -47 
vt 56.0271 -46.9953 
vt 56.0002 -47 
vt 56.0002 -47.0271 
vt 56.0002 -47 
vt 56.0271 -46.9953 
vt 56.0259 -46.9907 
vt 56.0002 -47.0271 
vt 56.0002 -47 
vt 55.9955 -47.0267 
vt 56.0002 -47 
vt 56.0259 -46.9907 
vt 56.0239 -46.9864 
vt 55.9955 -47.0267 
vt 56.0002 -47 
vt 55.9909 -47.0255 
vt 56.0002 -47 
vt 56.0239 -46.9864 
vt 56.0211 -46.9826 
vt 55.9909 -47.0255 
vt 56.0002 -47 
vt 55.9865 -47.0235 
vt 56.0002 -47 
vt 56.0211 -46.9826 
vt 56.0178 -46.9792 
vt 56.0002 -47 
vt 55.9826 -47.0208 
vt 56.0002 -47 
vt 56.0178 -46.9792 
vt 56.0139 -46.9765 
vt 55.9826 -47.0208 
vt 56.0002 -47 
vt 55.9793 -47.0174 
vt 56.0002 -47 
vt 56.0139 -46.9765 
vt 56.0096 -46.9745 
vt 55.9793 -47.0174 
vt 56.0002 -47 
vt 55.9765 -47.0136 
vt 56.0002 -47 
vt 56.0096 -46.9745 
vt 56.005 -46.9733 
vt 55.9765 -47.0136 
vt 56.0002 -47 
vt 55.9745 -47.0093 
vt 56.0002 -47 
vt 56.005 -46.9733 
vt 56.0002 -46.9729 
vt 55.9745 -47.0093 
vt 56.0002 -47 
vt 55.9729 -47.0047 
vt 56.0002 -47 
vt 56.0002 -46.9729 
vt 55.9955 -46.9733 
vt 55.9729 -47.0047 
vt 56.0002 -47 
vt 55.9729 -47 
vt 56.0002 -47 
vt 55.9955 -46.9733 
vt 55.9909 -46.9745 
vt 55.9729 -47 
vt 56.0002 -47 
vt 55.9729 -46.9953 
vt 56.0002 -47 
vt 55.9909 -46.9745 
vt 55.9865 -46.9765 
vt 55.9729 -46.9953 
vt 56.0002 -47 
vt 55.9745 -46.9907 
vt 56.0002 -47 
vt 55.9865 -46.9765 
vt 55.9826 -46.9792 
vt 55.9745 -46.9907 
vt 56.0002 -47 
vt 55.9765 -46.9864 
vt 56.0002 -47 
vt 55.9826 -46.9792 
vt 55.9793 -46.9826 
vt 55.9765 -46.9864 
vt 56.0002 -47 
vt 55.9793 -46.9826 

usemtl Hole1Mtl

f 1/1/1 2/2/2 3/3/3 
f 4/4/4 5/5/5 6/6/6 
f 7/7/7 8/8/8 9/9/9 
f 10/10/10 11/11/11 12/12/12 
f 13/13/13 14/14/14 15/15/15 
f 16/16/16 17/17/17 18/18/18 
f 19/19/19 20/20/20 21/21/21 
f 18/18/18 22/22/22 23/23/23 
f 24/24/24 25/25/25 26/26/26 
f 23/23/23 27/27/27 28/28/28 
f 29/29/29 30/30/30 31/31/31 
f 32/32/32 33/33/33 34/34/34 
f 35/35/35 36/36/36 37/37/37 
f 38/38/38 39/39/39 40/40/40 
f 41/41/41 42/42/42 43/43/43 
f 44/44/44 45/45/45 46/46/46 
f 47/47/47 48/48/48 49/49/49 
f 46/46/46 50/50/50 51/51/51 
f 52/52/52 53/53/53 54/54/54 
f 55/55/55 56/56/56 57/57/57 
f 58/58/58 59/59/59 60/60/60 
f 61/61/61 62/62/62 63/63/63 
f 64/64/64 65/65/65 66/66/66 
f 67/67/67 68/68/68 69/69/69 
f 70/70/70 71/71/71 72/72/72 
f 73/73/73 74/74/74 75/75/75 
f 76/76/76 77/77/77 78/78/78 
f 79/79/79 80/80/80 81/81/81 
f 82/82/82 83/83/83 84/84/84 
f 85/85/85 86/86/86 87/87/87 
f 88/88/88 89/89/89 90/90/90 
f 91/91/91 92/92/92 93/93/93 
f 94/94/94 95/95/95 96/96/96 
f 97/97/97 98/98/98 99/99/99 
f 100/100/100 101/101/101 102/102/102 
f 103/103/103 104/104/104 105/105/105 

