# This file is brought to you by Roblox Corporation
# Generated by Roblox Studio

mtllib extra2.mtl

g Extra21

v 3.17964 -1.86191 -3.798 
v -3.31293 -1.45892 -3.86358 
v 3.31289 -1.45892 -3.86362 
v -3.17967 -1.86191 -3.79796 
v -3.14706 -2.07206 -3.77058 
v -3.17967 -1.86191 -3.79796 
v 3.17964 -1.86191 -3.798 
v -3.14706 -2.07206 -3.77058 
v 3.17964 -1.86191 -3.798 
v 3.14703 -2.07206 -3.77062 
v -3.31495 -0.472169 -5.67524 
v 3.3165 -0.613478 -6.02955 
v 3.31489 -0.472169 -5.67528 
v -3.31656 -0.613478 -6.02951 
v 3.31892 -0.439157 -5.23927 
v -3.31898 -0.439157 -5.23923 
v 3.3298 -0.491896 -4.76059 
v -3.32985 -0.491896 -4.76055 
v 3.34188 -0.706074 -4.39464 
v -3.34192 -0.706074 -4.3946 
v 3.35154 -1.02452 -4.10638 
v -3.35158 -1.02452 -4.10634 
v 3.31289 -1.45892 -3.86362 
v -3.31293 -1.45892 -3.86358 
v 3.72803e-05 0.439697 5.67939 
v 1.11521 0.456605 5.63107 
v 1.10193 0.489215 5.62785 
v 0.933644 0.579798 5.65684 
v 3.71916e-05 0.585434 5.66449 
v 3.72803e-05 0.439697 5.67939 
v -0.933569 0.579798 5.65685 
v 3.72803e-05 0.439697 5.67939 
v 3.71916e-05 0.585434 5.66449 
v 3.72803e-05 0.439697 5.67939 
v -1.10185 0.489215 5.62786 
v -1.11514 0.456605 5.63108 
v 3.72803e-05 0.439697 5.67939 
v 1.12004 0.41997 5.65764 
v 1.11521 0.456605 5.63107 
v 3.72803e-05 0.439697 5.67939 
v -1.11514 0.456605 5.63108 
v -1.11997 0.41997 5.65765 
v 3.72803e-05 0.439697 5.67939 
v 1.10193 0.489215 5.62785 
v 1.02463 0.558863 5.63791 
v 3.72803e-05 0.439697 5.67939 
v -1.02455 0.558863 5.63793 
v -1.10185 0.489215 5.62786 
v 2.21427 -0.237862 3.45788 
v 2.13981 -0.501961 6.94512 
v 2.21429 -2.31563 6.72812 
v 3.72803e-05 0.439697 5.67939 
v 1.02463 0.558863 5.63791 
v 0.933644 0.579798 5.65684 
v 2.21427 -0.237862 3.45788 
v 2.21429 -2.31563 6.72812 
v 2.21427 -2.41386 3.71192 
v 2.21421 -0.0124115 -6.62015 
v 2.21423 -2.35629 -3.62609 
v 2.21421 -2.07005 -6.72844 
v 3.72803e-05 0.439697 5.67939 
v -0.933569 0.579798 5.65685 
v -1.02455 0.558863 5.63793 
v -3.31571 -0.204044 3.64351 
v -3.27343 -0.125539 3.6109 
v -3.29517 -0.20646 3.6113 
v -2.21422 -0.237862 3.45791 
v -2.2142 -2.31563 6.72815 
v -2.13972 -0.501961 6.94514 
v -2.21422 -0.237862 3.45791 
v -2.21422 -2.41386 3.71194 
v -2.2142 -2.31563 6.72815 
v -2.21428 -0.0124115 -6.62012 
v -2.21428 -2.07005 -6.72842 
v -2.21426 -2.35629 -3.62606 
v -3.31571 -0.204044 3.64351 
v -3.29719 -0.125137 3.64311 
v -3.27343 -0.125539 3.6109 
v 2.21421 -0.0124115 -6.62015 
v 2.13975 -0.810344 -3.41231 
v 2.21423 -2.35629 -3.62609 
v 2.27911 0.0958852 6.79777 
v 2.01501 0.108768 6.89359 
v 2.25334 0.0886385 6.83763 
v -2.27902 0.0958852 6.7978 
v -2.25325 0.0886385 6.83765 
v -2.01492 0.108768 6.89361 
v -1.86314 0.179221 6.89965 
v -1.82369 0.169156 6.94474 
v -1.562 0.171169 6.99425 
v -2.21428 -0.0124115 -6.62012 
v -2.21426 -2.35629 -3.62606 
v -2.13978 -0.810344 -3.41229 
v -1.86314 0.179221 6.89965 
v -1.562 0.171169 6.99425 
v -1.52899 0.181637 6.96205 
v 1.86323 0.179221 6.89963 
v 1.52908 0.181637 6.96203 
v 1.56209 0.171169 6.99424 
v 1.94697 0.292349 6.37223 
v 1.60396 0.299193 6.43383 
v -1.94688 0.292349 6.37226 
v -1.52899 0.181637 6.96205 
v -1.60388 0.299193 6.43385 
v 2.27911 0.0958852 6.79777 
v 1.99407 0.119638 6.85454 
v 2.01501 0.108768 6.89359 
v -2.27902 0.0958852 6.7978 
v -2.01492 0.108768 6.89361 
v -1.99398 0.119638 6.85456 
v 1.86323 0.179221 6.89963 
v 1.56209 0.171169 6.99424 
v 1.82378 0.169156 6.94472 
v 1.94697 0.292349 6.37223 
v 1.52908 0.181637 6.96203 
v 1.9051 0.302414 6.3368 
v 1.64663 0.305232 6.38955 
v 2.27347 0.208208 6.22891 
v 2.11122 0.223506 6.26233 
v 2.05848 0.218675 6.32312 
v 2.32741 0.195325 6.27078 
v 2.05848 0.218675 6.32312 
v 1.99407 0.119638 6.85454 
v 2.27911 0.0958852 6.79777 
v -1.94688 0.292349 6.37226 
v -1.86314 0.179221 6.89965 
v -1.52899 0.181637 6.96205 
v -1.94688 0.292349 6.37226 
v -1.64655 0.305232 6.38957 
v -1.90501 0.302414 6.33683 
v -2.27338 0.208208 6.22894 
v -2.0584 0.218675 6.32314 
v -2.11114 0.223506 6.26235 
v -2.32733 0.195325 6.27081 
v -1.99398 0.119638 6.85456 
v -2.0584 0.218675 6.32314 
v -2.27902 0.0958852 6.7978 
v 1.94697 0.292349 6.37223 
v 1.64663 0.305232 6.38955 
v 1.60396 0.299193 6.43383 
v -1.94688 0.292349 6.37226 
v -1.60388 0.299193 6.43385 
v -1.64655 0.305232 6.38957 
v 3.31053 -0.491896 4.77314 
v -3.31046 -0.491896 4.77318 
v -3.31328 -0.663802 4.43742 
v 3.31335 -0.663802 4.43738 
v -3.32536 -0.899317 4.15923 
v 3.32542 -0.899317 4.15919 
v -3.32939 -1.15858 3.97967 
v 3.32945 -1.15858 3.97963 
v -3.26619 -1.52534 3.8291 
v 3.26624 -1.52534 3.82907 
v -3.13695 -1.86191 3.75704 
v 3.13701 -1.86191 3.757 
v 2.27347 0.208208 6.22891 
v 2.05848 0.218675 6.32312 
v 2.32741 0.195325 6.27078 
v -2.27338 0.208208 6.22894 
v -2.32733 0.195325 6.27081 
v -2.0584 0.218675 6.32314 
v -3.13695 -1.86191 3.75704 
v 3.14707 -2.07206 3.73244 
v 3.13701 -1.86191 3.757 
v -3.13695 -1.86191 3.75704 
v -3.14702 -2.07206 3.73248 
v 3.14707 -2.07206 3.73244 
v 3.31093 -0.437949 5.28926 
v -3.31086 -0.437949 5.2893 
v -3.31046 -0.491896 4.77318 
v 3.31053 -0.491896 4.77314 
v 3.31335 -0.47539 5.61656 
v -3.31328 -0.47539 5.6166 
v -3.31086 -0.437949 5.2893 
v 3.31093 -0.437949 5.28926 
v 3.31892 -0.439157 -5.23927 
v -3.31495 -0.472169 -5.67524 
v 3.31489 -0.472169 -5.67528 
v 3.31335 -0.47539 5.61656 
v -3.31972 -0.642062 6.03328 
v -3.31328 -0.47539 5.6166 
v 3.3198 -0.642062 6.03324 
v 3.32463 -0.873551 6.30781 
v -3.31972 -0.642062 6.03328 
v 3.3198 -0.642062 6.03324 
v -3.32455 -0.873551 6.30785 
v 3.32463 -0.897304 6.33237 
v -3.32454 -0.897304 6.33241 
v 3.33341 -0.848188 -6.3319 
v -3.33267 -0.685542 -6.15593 
v -3.33347 -0.848188 -6.33186 
v 3.33261 -0.685542 -6.15597 
v -3.31656 -0.613478 -6.02951 
v 3.3165 -0.613478 -6.02955 

vn 0 -0.165354 -0.984252 
vn 0 -0.283465 -0.96063 
vn 0 -0.283465 -0.96063 
vn 0 -0.165354 -0.984252 
vn 0 -0.125984 -0.992126 
vn 0 -0.165354 -0.984252 
vn 0 -0.165354 -0.984252 
vn 0 -0.125984 -0.992126 
vn 0 -0.165354 -0.984252 
vn 0 -0.125984 -0.992126 
vn 0 -0.968504 0.251969 
vn 0 -0.913386 0.401575 
vn 0 -0.968504 0.251969 
vn 0 -0.913386 0.401575 
vn 0 -1 0.015748 
vn 0 -1 0.015748 
vn 0 -0.952756 -0.307087 
vn 0 -0.952756 -0.307087 
vn 0 -0.779528 -0.622047 
vn 0 -0.779528 -0.622047 
vn 0 -0.543307 -0.834646 
vn 0 -0.543307 -0.834646 
vn 0 -0.409449 -0.913386 
vn 0 -0.409449 -0.913386 
vn 0 0.0944882 0.992126 
vn 0 0.0944882 0.992126 
vn 0 0.0944882 0.992126 
vn 0 0.0944882 0.992126 
vn 0 0.0944882 0.992126 
vn 0 0.0944882 0.992126 
vn 0 0.0944882 0.992126 
vn 0 0.0944882 0.992126 
vn 0 0.0944882 0.992126 
vn 0 0.0944882 0.992126 
vn 0 0.0944882 0.992126 
vn 0 0.0944882 0.992126 
vn 0 0.0944882 0.992126 
vn 0 0.0944882 0.992126 
vn 0 0.0944882 0.992126 
vn 0 0.0944882 0.992126 
vn 0 0.0944882 0.992126 
vn 0 0.0944882 0.992126 
vn 0 0.0944882 0.992126 
vn 0 0.0944882 0.992126 
vn 0 0.0944882 0.992126 
vn 0 0.0944882 0.992126 
vn 0 0.0944882 0.992126 
vn 0 0.0944882 0.992126 
vn 1 0.015748 0.015748 
vn 1 0.015748 0.015748 
vn 1 0.015748 0.015748 
vn 0 0.0944882 0.992126 
vn 0 0.0944882 0.992126 
vn 0 0.0944882 0.992126 
vn 1 0.015748 0.015748 
vn 1 0.015748 0.015748 
vn 1 0.015748 0.015748 
vn 1 0.015748 0.015748 
vn 1 0.015748 0.015748 
vn 1 0.015748 0.015748 
vn 0 0.0944882 0.992126 
vn 0 0.0944882 0.992126 
vn 0 0.0944882 0.992126 
vn -0.795276 0.251969 -0.551181 
vn -0.944882 0 -0.330709 
vn -0.889764 0.377953 -0.267717 
vn 0 0.779528 0.622047 
vn -1 0.015748 0.015748 
vn 0 0.858268 0.511811 
vn 0 0.779528 0.622047 
vn -1 0.015748 0.015748 
vn -1 0.015748 0.015748 
vn 0 0.779528 0.622047 
vn 0 0.755906 0.653543 
vn -1 0.015748 0.015748 
vn -0.795276 0.251969 -0.551181 
vn -0.795276 0.125984 -0.590551 
vn -0.944882 0 -0.330709 
vn 1 0.015748 0.015748 
vn 1 0.015748 0.015748 
vn 1 0.015748 0.015748 
vn 0.11811 0.976378 0.19685 
vn 0.133858 0.96063 0.228346 
vn 0.133858 0.96063 0.228346 
vn -0.11811 0.976378 0.19685 
vn -0.133858 0.96063 0.228346 
vn -0.133858 0.96063 0.228346 
vn -0.0551181 0.976378 0.220472 
vn -0.0551181 0.96063 0.259843 
vn -0.0551181 0.96063 0.259843 
vn 0 0.779528 0.622047 
vn -1 0.015748 0.015748 
vn -1 0.015748 0.015748 
vn -0.0551181 0.976378 0.220472 
vn -0.0551181 0.96063 0.259843 
vn -0.0551181 0.976378 0.220472 
vn 0.0551181 0.976378 0.220472 
vn 0.0551181 0.976378 0.220472 
vn 0.0551181 0.96063 0.259843 
vn 0.0551181 0.976378 0.220472 
vn 0.0551181 0.976378 0.220472 
vn -0.0551181 0.976378 0.220472 
vn -0.0551181 0.976378 0.220472 
vn -0.0551181 0.976378 0.220472 
vn 0.11811 0.976378 0.19685 
vn 0.11811 0.976378 0.19685 
vn 0.133858 0.96063 0.228346 
vn -0.11811 0.976378 0.19685 
vn -0.133858 0.96063 0.228346 
vn -0.11811 0.976378 0.19685 
vn 0.0551181 0.976378 0.220472 
vn 0.0551181 0.96063 0.259843 
vn 0.0551181 0.96063 0.259843 
vn 0.0551181 0.976378 0.220472 
vn 0.0551181 0.976378 0.220472 
vn 0.0551181 0.976378 0.19685 
vn 0.0551181 0.976378 0.19685 
vn 0.11811 0.976378 0.165354 
vn 0.11811 0.976378 0.165354 
vn 0.11811 0.976378 0.19685 
vn 0.11811 0.976378 0.19685 
vn 0.11811 0.976378 0.19685 
vn 0.11811 0.976378 0.19685 
vn 0.11811 0.976378 0.19685 
vn -0.0551181 0.976378 0.220472 
vn -0.0551181 0.976378 0.220472 
vn -0.0551181 0.976378 0.220472 
vn -0.0551181 0.976378 0.220472 
vn -0.0551181 0.976378 0.19685 
vn -0.0551181 0.976378 0.19685 
vn -0.11811 0.976378 0.165354 
vn -0.11811 0.976378 0.19685 
vn -0.11811 0.976378 0.165354 
vn -0.11811 0.976378 0.19685 
vn -0.11811 0.976378 0.19685 
vn -0.11811 0.976378 0.19685 
vn -0.11811 0.976378 0.19685 
vn 0.0551181 0.976378 0.220472 
vn 0.0551181 0.976378 0.19685 
vn 0.0551181 0.976378 0.220472 
vn -0.0551181 0.976378 0.220472 
vn -0.0551181 0.976378 0.220472 
vn -0.0551181 0.976378 0.19685 
vn 0 -0.96063 0.275591 
vn 0 -0.96063 0.275591 
vn 0 -0.834646 0.551181 
vn 0 -0.834646 0.551181 
vn 0 -0.700787 0.716535 
vn 0 -0.700787 0.716535 
vn 0 -0.496063 0.866142 
vn 0 -0.496063 0.866142 
vn 0 -0.251969 0.968504 
vn 0 -0.251969 0.968504 
vn 0 -0.11811 0.992126 
vn 0 -0.11811 0.992126 
vn 0.11811 0.976378 0.165354 
vn 0.11811 0.976378 0.19685 
vn 0.11811 0.976378 0.19685 
vn -0.11811 0.976378 0.165354 
vn -0.11811 0.976378 0.19685 
vn -0.11811 0.976378 0.19685 
vn 0 -0.11811 0.992126 
vn 0 -0.11811 0.992126 
vn 0 -0.11811 0.992126 
vn 0 -0.11811 0.992126 
vn 0 -0.11811 0.992126 
vn 0 -0.11811 0.992126 
vn 0 -1 -0.0472441 
vn 0 -1 -0.0472441 
vn 0 -0.96063 0.275591 
vn 0 -0.96063 0.275591 
vn 0 -0.952756 -0.314961 
vn 0 -0.952756 -0.314961 
vn 0 -1 -0.0472441 
vn 0 -1 -0.0472441 
vn 0 -1 0.015748 
vn 0 -0.968504 0.251969 
vn 0 -0.968504 0.251969 
vn 0 -0.952756 -0.314961 
vn 0 -0.874016 -0.480315 
vn 0 -0.952756 -0.314961 
vn 0 -0.874016 -0.480315 
vn 0 -0.779528 -0.622047 
vn 0 -0.874016 -0.480315 
vn 0 -0.874016 -0.480315 
vn 0 -0.779528 -0.622047 
vn 0 -0.755906 -0.653543 
vn 0 -0.755906 -0.653543 
vn 0 -0.653543 0.755906 
vn 0 -0.795276 0.606299 
vn 0 -0.653543 0.755906 
vn 0 -0.795276 0.606299 
vn 0 -0.850394 0.527559 
vn 0 -0.850394 0.527559 

vt 0.3088 0.4352 
vt 0.3098 0.4349 
vt 0.3098 0.4349 
vt 0.3088 0.4352 
vt 0.2554 0.4273 
vt 0.3088 0.4352 
vt 0.3088 0.4352 
vt 0.2554 0.4273 
vt 0.3088 0.4352 
vt 0.3058 0.4273 
vt 0.3098 0.4268 
vt 0.3099 0.4253 
vt 0.3098 0.4268 
vt 0.3099 0.4253 
vt 0.3099 0.4286 
vt 0.3099 0.4286 
vt 0.31 0.4308 
vt 0.31 0.4308 
vt 0.3101 0.4327 
vt 0.3101 0.4327 
vt 0.3101 0.4341 
vt 0.3101 0.4341 
vt 0.3098 0.4349 
vt 0.3098 0.4349 
vt 0.3724 0.6334 
vt 0.3798 0.6411 
vt 0.3914 0.6409 
vt 0.4164 0.6393 
vt 0.4183 0.6308 
vt 0.3724 0.6334 
vt 0.4164 0.6393 
vt 0.3724 0.6334 
vt 0.4183 0.6308 
vt 0.3724 0.6334 
vt 0.3914 0.6409 
vt 0.3798 0.6411 
vt 0.3724 0.6334 
vt 0.3674 0.6411 
vt 0.3798 0.6411 
vt 0.3724 0.6334 
vt 0.3798 0.6411 
vt 0.3674 0.6411 
vt 0.3724 0.6334 
vt 0.3914 0.6409 
vt 0.4093 0.6406 
vt 0.3724 0.6334 
vt 0.4093 0.6406 
vt 0.3914 0.6409 
vt 0.301 0.4225 
vt 0.3004 0.4386 
vt 0.301 0.4376 
vt 0.3724 0.6334 
vt 0.4093 0.6406 
vt 0.4164 0.6393 
vt 0.301 0.4225 
vt 0.301 0.4376 
vt 0.301 0.4237 
vt 0.301 0.4216 
vt 0.301 0.4354 
vt 0.301 0.422 
vt 0.3724 0.6334 
vt 0.4164 0.6393 
vt 0.4093 0.6406 
vt 0.3101 0.2011 
vt 0.3186 0.1871 
vt 0.3185 0.201 
vt 0.301 0.4225 
vt 0.301 0.4376 
vt 0.3004 0.4386 
vt 0.301 0.4225 
vt 0.301 0.4237 
vt 0.301 0.4376 
vt 0.301 0.4216 
vt 0.301 0.422 
vt 0.301 0.4354 
vt 0.3101 0.2011 
vt 0.3102 0.1871 
vt 0.3186 0.1871 
vt 0.301 0.4216 
vt 0.3004 0.4363 
vt 0.301 0.4354 
vt 0.0366 0.9754 
vt 0.0165 0.9237 
vt 0.0284 0.9706 
vt 0.0366 0.9754 
vt 0.0284 0.9706 
vt 0.0165 0.9237 
vt 0.0379 0.9769 
vt 0.0299 0.9704 
vt 0.016 0.9217 
vt 0.301 0.4216 
vt 0.301 0.4354 
vt 0.3004 0.4363 
vt 0.0379 0.9769 
vt 0.016 0.9217 
vt 0.0231 0.9132 
vt 0.1268 0.9219 
vt 0.1429 0.9849 
vt 0.1488 0.9782 
vt 0.0231 0.9132 
vt 0.0379 0.9769 
vt 0.1429 0.9849 
vt 0.0231 0.9132 
vt 0.1268 0.9219 
vt 0.0366 0.9754 
vt 0.0245 0.9191 
vt 0.0165 0.9237 
vt 0.0366 0.9754 
vt 0.0165 0.9237 
vt 0.0245 0.9191 
vt 0.1268 0.9219 
vt 0.1488 0.9782 
vt 0.136 0.9288 
vt 0.0231 0.9132 
vt 0.1429 0.9849 
vt 0.016 0.9217 
vt 0.0299 0.9704 
vt 0.1516 0.971 
vt 0.1447 0.9376 
vt 0.1316 0.9277 
vt 0.1425 0.9808 
vt 0.1316 0.9277 
vt 0.0245 0.9191 
vt 0.0366 0.9754 
vt 0.1429 0.9849 
vt 0.0379 0.9769 
vt 0.0231 0.9132 
vt 0.1429 0.9849 
vt 0.136 0.9288 
vt 0.1488 0.9782 
vt 0.1516 0.971 
vt 0.1316 0.9277 
vt 0.1447 0.9376 
vt 0.1425 0.9808 
vt 0.0245 0.9191 
vt 0.1316 0.9277 
vt 0.0366 0.9754 
vt 0.0231 0.9132 
vt 0.0299 0.9704 
vt 0.0379 0.9769 
vt 0.1429 0.9849 
vt 0.1268 0.9219 
vt 0.136 0.9288 
vt 0.3097 0.4285 
vt 0.3097 0.4285 
vt 0.3098 0.4271 
vt 0.3098 0.4271 
vt 0.3099 0.4257 
vt 0.3099 0.4257 
vt 0.31 0.4247 
vt 0.31 0.4247 
vt 0.3096 0.4241 
vt 0.3096 0.4241 
vt 0.3084 0.4238 
vt 0.3084 0.4238 
vt 0.1516 0.971 
vt 0.1316 0.9277 
vt 0.1425 0.9808 
vt 0.1516 0.971 
vt 0.1425 0.9808 
vt 0.1316 0.9277 
vt 0.3084 0.4238 
vt 0.3059 0.4371 
vt 0.3084 0.4238 
vt 0.3084 0.4238 
vt 0.2554 0.4371 
vt 0.3059 0.4371 
vt 0.3096 0.431 
vt 0.3096 0.431 
vt 0.3097 0.4285 
vt 0.3097 0.4285 
vt 0.3098 0.4333 
vt 0.3098 0.4333 
vt 0.3096 0.431 
vt 0.3096 0.431 
vt 0.3099 0.4286 
vt 0.3098 0.4268 
vt 0.3098 0.4268 
vt 0.3098 0.4333 
vt 0.3099 0.4344 
vt 0.3098 0.4333 
vt 0.3099 0.4344 
vt 0.3099 0.4353 
vt 0.3099 0.4344 
vt 0.3099 0.4344 
vt 0.3099 0.4353 
vt 0.3099 0.4356 
vt 0.3099 0.4356 
vt 0.3099 0.4336 
vt 0.3099 0.4344 
vt 0.3099 0.4336 
vt 0.3099 0.4344 
vt 0.3099 0.4348 
vt 0.3099 0.4348 

usemtl Extra21Mtl

f 1/1/1 2/2/2 3/3/3 
f 1/1/1 4/4/4 2/2/2 
f 5/5/5 6/6/6 7/7/7 
f 8/8/8 9/9/9 10/10/10 
f 11/11/11 12/12/12 13/13/13 
f 11/11/11 14/14/14 12/12/12 
f 15/15/15 16/16/16 11/11/11 
f 17/17/17 16/16/16 15/15/15 
f 17/17/17 18/18/18 16/16/16 
f 19/19/19 18/18/18 17/17/17 
f 19/19/19 20/20/20 18/18/18 
f 21/21/21 20/20/20 19/19/19 
f 21/21/21 22/22/22 20/20/20 
f 23/23/23 22/22/22 21/21/21 
f 23/23/23 24/24/24 22/22/22 
f 25/25/25 26/26/26 27/27/27 
f 28/28/28 29/29/29 30/30/30 
f 31/31/31 32/32/32 33/33/33 
f 34/34/34 35/35/35 36/36/36 
f 37/37/37 38/38/38 39/39/39 
f 40/40/40 41/41/41 42/42/42 
f 43/43/43 44/44/44 45/45/45 
f 46/46/46 47/47/47 48/48/48 
f 49/49/49 50/50/50 51/51/51 
f 52/52/52 53/53/53 54/54/54 
f 55/55/55 56/56/56 57/57/57 
f 58/58/58 59/59/59 60/60/60 
f 61/61/61 62/62/62 63/63/63 
f 64/64/64 65/65/65 66/66/66 
f 67/67/67 68/68/68 69/69/69 
f 70/70/70 71/71/71 72/72/72 
f 73/73/73 74/74/74 75/75/75 
f 76/76/76 77/77/77 78/78/78 
f 79/79/79 80/80/80 81/81/81 
f 82/82/82 83/83/83 84/84/84 
f 85/85/85 86/86/86 87/87/87 
f 88/88/88 89/89/89 90/90/90 
f 91/91/91 92/92/92 93/93/93 
f 94/94/94 95/95/95 96/96/96 
f 97/97/97 98/98/98 99/99/99 
f 100/100/100 101/101/101 98/98/98 
f 102/102/102 103/103/103 104/104/104 
f 105/105/105 106/106/106 107/107/107 
f 108/108/108 109/109/109 110/110/110 
f 111/111/111 112/112/112 113/113/113 
f 114/114/114 115/115/115 111/111/111 
f 114/114/114 116/116/116 117/117/117 
f 118/118/118 119/119/119 120/120/120 
f 121/121/121 122/122/122 123/123/123 
f 121/121/121 123/123/123 124/124/124 
f 125/125/125 126/126/126 127/127/127 
f 128/128/128 129/129/129 130/130/130 
f 131/131/131 132/132/132 133/133/133 
f 134/134/134 135/135/135 136/136/136 
f 134/134/134 137/137/137 135/135/135 
f 138/138/138 139/139/139 140/140/140 
f 141/141/141 142/142/142 143/143/143 
f 144/144/144 145/145/145 146/146/146 
f 144/144/144 146/146/146 147/147/147 
f 147/147/147 146/146/146 148/148/148 
f 147/147/147 148/148/148 149/149/149 
f 149/149/149 148/148/148 150/150/150 
f 149/149/149 150/150/150 151/151/151 
f 151/151/151 150/150/150 152/152/152 
f 151/151/151 152/152/152 153/153/153 
f 153/153/153 152/152/152 154/154/154 
f 153/153/153 154/154/154 155/155/155 
f 156/156/156 157/157/157 158/158/158 
f 159/159/159 160/160/160 161/161/161 
f 162/162/162 163/163/163 164/164/164 
f 165/165/165 166/166/166 167/167/167 
f 168/168/168 169/169/169 170/170/170 
f 168/168/168 170/170/170 171/171/171 
f 172/172/172 173/173/173 174/174/174 
f 172/172/172 174/174/174 175/175/175 
f 176/176/176 177/177/177 178/178/178 
f 179/179/179 180/180/180 181/181/181 
f 179/179/179 182/182/182 180/180/180 
f 183/183/183 184/184/184 185/185/185 
f 183/183/183 186/186/186 184/184/184 
f 187/187/187 186/186/186 183/183/183 
f 187/187/187 188/188/188 186/186/186 
f 189/189/189 190/190/190 191/191/191 
f 189/189/189 192/192/192 190/190/190 
f 192/192/192 193/193/193 190/190/190 
f 192/192/192 194/194/194 193/193/193 

