# This file is brought to you by Roblox Corporation
# Generated by Roblox Studio

mtllib glass.mtl

g Glass1

v -2.89501 0.642782 -2.06525 
v -2.79679 0.764364 -4.41115 
v -2.82537 0.693508 -4.20421 
v -2.68885 1.06912 2.24648 
v -2.89581 0.637951 -1.9328 
v -2.90505 0.473292 2.21468 
v -2.68042 1.1271 -1.97226 
v -2.70218 0.899634 -4.49609 
v -2.89501 0.642782 -2.06525 
v -2.59026 1.15729 -4.33667 
v -2.21865 1.97777 -1.81726 
v -2.2396 1.98944 -3.35234 
v -2.08741 2.18792 -1.77499 
v -2.22067 1.97294 -1.71339 
v -2.68885 1.06912 2.24648 
v -2.21864 1.98461 0.557614 
v -2.10954 2.14887 -0.48147 
v -2.08942 2.18309 -1.67475 
v -2.68203 1.12267 -1.85188 
v -2.68885 1.06912 2.24648 
v -2.89581 0.637951 -1.9328 
v -2.08741 2.18792 -1.77499 
v -2.13935 2.16296 -3.0198 
v -2.2396 1.98944 -3.35234 
v -2.09828 2.21248 -2.58983 
v -2.79679 0.764364 -4.41115 
v -2.89501 0.642782 -2.06525 
v -2.70218 0.899634 -4.49609 
v -2.68042 1.1271 -1.97226 
v -2.59026 1.15729 -4.33667 
v -2.21865 1.97777 -1.81726 
v -2.10954 2.14887 -0.48147 
v -2.21864 1.98461 0.557614 
v -2.17073 2.06594 0.251646 
v 2.34674 1.2201 2.43849 
v 1.82942 0.572329 3.60842 
v 2.52751 0.796571 3.08746 
v -2.34665 1.2201 2.43851 
v -2.52741 0.796571 3.08749 
v -1.82932 0.572329 3.60844 
v 5.23051e-05 0.581588 3.71874 
v 2.34674 1.2201 2.43849 
v 4.62189e-05 1.24586 2.69576 
v 5.23051e-05 0.581588 3.71874 
v 4.62189e-05 1.24586 2.69576 
v -2.34665 1.2201 2.43851 
v 2.34674 1.2201 2.43849 
v 1.02986 2.12029 1.025 
v 4.62189e-05 1.24586 2.69576 
v -2.34665 1.2201 2.43851 
v 4.62189e-05 1.24586 2.69576 
v -1.02979 2.12029 1.02501 
v 2.52751 0.796571 3.08746 
v 1.82942 0.572329 3.60842 
v 2.46189 0.603328 3.44416 
v -2.52741 0.796571 3.08749 
v -2.46179 0.603328 3.44418 
v -1.82932 0.572329 3.60844 
v 2.3475 1.01035 -5.68819 
v 1.53991 1.6879 -5.01908 
v 2.10635 1.63919 -4.79605 
v -2.34751 1.01035 -5.68816 
v -2.10635 1.63919 -4.79603 
v -1.53991 1.6879 -5.01906 
v 1.02986 2.12029 1.025 
v 3.66477e-05 2.13196 1.08701 
v 4.62189e-05 1.24586 2.69576 
v -1.02979 2.12029 1.02501 
v 4.62189e-05 1.24586 2.69576 
v 3.66477e-05 2.13196 1.08701 
v 5.23051e-05 0.581588 3.71874 
v 1.82942 0.572329 3.60842 
v 2.34674 1.2201 2.43849 
v 5.23051e-05 0.581588 3.71874 
v -2.34665 1.2201 2.43851 
v -1.82932 0.572329 3.60844 
v 1.02986 2.12029 1.025 
v 2.34674 1.2201 2.43849 
v 1.9067 2.07077 0.855104 
v -1.02979 2.12029 1.02501 
v -1.90663 2.07077 0.855127 
v -2.34665 1.2201 2.43851 
v 2.3475 1.01035 -5.68819 
v 1.68765 1.05705 -6.0485 
v 1.53991 1.6879 -5.01908 
v -2.34751 1.01035 -5.68816 
v -1.53991 1.6879 -5.01906 
v -1.68766 1.05705 -6.04848 
v 1.87205 2.16618 -3.88257 
v 2.10635 1.63919 -4.79605 
v 1.53991 1.6879 -5.01908 
v -1.87204 2.16618 -3.88255 
v -1.53991 1.6879 -5.01906 
v -2.10635 1.63919 -4.79603 
v 0.793901 1.07396 -6.17934 
v 1.53991 1.6879 -5.01908 
v 1.68765 1.05705 -6.0485 
v 0.755661 1.71045 -5.12697 
v -0.793914 1.07396 -6.17933 
v -1.53991 1.6879 -5.01906 
v -0.755661 1.71045 -5.12696 
v -1.68766 1.05705 -6.04848 
v 1.87205 2.16618 -3.88257 
v 1.53991 1.6879 -5.01908 
v 1.39256 2.21328 -4.00576 
v -1.87204 2.16618 -3.88255 
v -1.39255 2.21328 -4.00575 
v -1.53991 1.6879 -5.01906 
v 0.755661 1.71045 -5.12697 
v 5.58906e-06 2.23945 -4.13338 
v 0.717823 2.23945 -4.1052 
v -6.74624e-06 1.07396 -6.20671 
v 0.793901 1.07396 -6.17934 
v -0.755661 1.71045 -5.12696 
v -0.717812 2.23945 -4.10519 
v 5.58906e-06 2.23945 -4.13338 
v -6.74624e-06 1.07396 -6.20671 
v -0.793914 1.07396 -6.17933 
v 1.39256 2.21328 -4.00576 
v 1.53991 1.6879 -5.01908 
v 0.755661 1.71045 -5.12697 
v -6.74624e-06 1.07396 -6.20671 
v -4.0614e-07 1.73622 -5.14106 
v -4.0614e-07 1.73622 -5.14106 
v 5.58906e-06 2.23945 -4.13338 
v -0.755661 1.71045 -5.12696 
v 5.58906e-06 2.23945 -4.13338 
v -4.0614e-07 1.73622 -5.14106 
v -1.39255 2.21328 -4.00575 
v -1.53991 1.6879 -5.01906 
v -6.74624e-06 1.07396 -6.20671 
v -4.0614e-07 1.73622 -5.14106 
v 1.39256 2.21328 -4.00576 
v 0.755661 1.71045 -5.12697 
v 0.717823 2.23945 -4.1052 
v -1.39255 2.21328 -4.00575 
v -0.717812 2.23945 -4.10519 
v -0.755661 1.71045 -5.12696 
v 2.89504 0.642782 -2.06529 
v 2.82538 0.693508 -4.20425 
v 2.7968 0.764364 -4.41118 
v 2.68894 1.06912 2.24645 
v 2.90513 0.473292 2.21464 
v 2.89585 0.637951 -1.93284 
v 2.68046 1.1271 -1.97229 
v 2.89504 0.642782 -2.06529 
v 2.70219 0.899634 -4.49612 
v 2.59027 1.15729 -4.3367 
v 2.23962 1.98944 -3.35236 
v 2.21869 1.97777 -1.81729 
v 2.08745 2.18792 -1.77502 
v 2.22071 1.97294 -1.71342 
v 2.68894 1.06912 2.24645 
v 2.68207 1.12267 -1.85191 
v 2.89585 0.637951 -1.93284 
v 2.08946 2.18309 -1.67477 
v 2.1096 2.14887 -0.481496 
v 2.21871 1.98461 0.557588 
v 2.68894 1.06912 2.24645 
v 2.1708 2.06594 0.25162 
v 2.1096 2.14887 -0.481496 
v 2.22071 1.97294 -1.71342 
v 2.08745 2.18792 -1.77502 
v 2.23962 1.98944 -3.35236 
v 2.13937 2.16296 -3.01982 
v 2.09831 2.21248 -2.58986 
v 2.7968 0.764364 -4.41118 
v 2.70219 0.899634 -4.49612 
v 2.89504 0.642782 -2.06529 
v 2.59027 1.15729 -4.3367 
v 2.68046 1.1271 -1.97229 
v 2.21869 1.97777 -1.81729 

vn -0.944882 0.338583 0.00787402 
vn -0.944882 0.330709 0.00787402 
vn -0.968504 0.244094 0 
vn -0.913386 0.401575 0.00787402 
vn -0.937008 0.346457 0.00787402 
vn -0.937008 0.346457 0.00787402 
vn -0.913386 0.417323 0 
vn -0.913386 0.401575 0.00787402 
vn -0.944882 0.338583 0.00787402 
vn -0.897638 0.448819 0 
vn -0.874016 0.480315 0.00787402 
vn -0.874016 0.480315 0.00787402 
vn -0.850394 0.519685 0.015748 
vn -0.866142 0.503937 0 
vn -0.913386 0.401575 0.00787402 
vn -0.874016 0.496063 0 
vn -0.850394 0.519685 0 
vn -0.850394 0.519685 0 
vn -0.913386 0.401575 0.00787402 
vn -0.913386 0.401575 0.00787402 
vn -0.937008 0.346457 0.00787402 
vn -0.850394 0.519685 0.015748 
vn -0.850394 0.519685 0.015748 
vn -0.874016 0.480315 0.00787402 
vn -0.84252 0.543307 0.015748 
vn -0.944882 0.330709 0.00787402 
vn -0.944882 0.338583 0.00787402 
vn -0.913386 0.401575 0.00787402 
vn -0.913386 0.417323 0 
vn -0.897638 0.448819 0 
vn -0.874016 0.480315 0.00787402 
vn -0.850394 0.519685 0 
vn -0.874016 0.496063 0 
vn -0.850394 0.527559 -0.00787402 
vn 0.110236 0.866142 0.480315 
vn 0.0944882 0.850394 0.519685 
vn 0.102362 0.850394 0.519685 
vn -0.110236 0.866142 0.480315 
vn -0.102362 0.850394 0.519685 
vn -0.0944882 0.850394 0.519685 
vn 0 0.84252 0.543307 
vn 0.110236 0.866142 0.480315 
vn 0 0.858268 0.511811 
vn 0 0.84252 0.543307 
vn 0 0.858268 0.511811 
vn -0.110236 0.866142 0.480315 
vn 0.110236 0.866142 0.480315 
vn 0.0708661 0.88189 0.464567 
vn 0 0.858268 0.511811 
vn -0.110236 0.866142 0.480315 
vn 0 0.858268 0.511811 
vn -0.0708661 0.88189 0.464567 
vn 0.102362 0.850394 0.519685 
vn 0.0944882 0.850394 0.519685 
vn 0.0944882 0.850394 0.519685 
vn -0.102362 0.850394 0.519685 
vn -0.0944882 0.850394 0.519685 
vn -0.0944882 0.850394 0.519685 
vn 0.291339 0.826772 -0.480315 
vn 0.173228 0.866142 -0.472441 
vn 0.259843 0.850394 -0.456693 
vn -0.291339 0.826772 -0.480315 
vn -0.259843 0.850394 -0.456693 
vn -0.173228 0.866142 -0.472441 
vn 0.0708661 0.88189 0.464567 
vn 0 0.874016 0.480315 
vn 0 0.858268 0.511811 
vn -0.0708661 0.88189 0.464567 
vn 0 0.858268 0.511811 
vn 0 0.874016 0.480315 
vn 0 0.84252 0.543307 
vn 0.0944882 0.850394 0.519685 
vn 0.110236 0.866142 0.480315 
vn 0 0.84252 0.543307 
vn -0.110236 0.866142 0.480315 
vn -0.0944882 0.850394 0.519685 
vn 0.0708661 0.88189 0.464567 
vn 0.110236 0.866142 0.480315 
vn 0.11811 0.88189 0.456693 
vn -0.0708661 0.88189 0.464567 
vn -0.11811 0.88189 0.456693 
vn -0.110236 0.866142 0.480315 
vn 0.291339 0.826772 -0.480315 
vn 0.19685 0.84252 -0.496063 
vn 0.173228 0.866142 -0.472441 
vn -0.291339 0.826772 -0.480315 
vn -0.173228 0.866142 -0.472441 
vn -0.19685 0.84252 -0.496063 
vn 0.220472 0.874016 -0.433071 
vn 0.259843 0.850394 -0.456693 
vn 0.173228 0.866142 -0.472441 
vn -0.220472 0.874016 -0.433071 
vn -0.173228 0.866142 -0.472441 
vn -0.259843 0.850394 -0.456693 
vn 0.0551181 0.850394 -0.519685 
vn 0.173228 0.866142 -0.472441 
vn 0.19685 0.84252 -0.496063 
vn 0.0551181 0.874016 -0.488189 
vn -0.0551181 0.850394 -0.519685 
vn -0.173228 0.866142 -0.472441 
vn -0.0551181 0.874016 -0.488189 
vn -0.19685 0.84252 -0.496063 
vn 0.220472 0.874016 -0.433071 
vn 0.173228 0.866142 -0.472441 
vn 0.15748 0.88189 -0.440945 
vn -0.220472 0.874016 -0.433071 
vn -0.15748 0.88189 -0.440945 
vn -0.173228 0.866142 -0.472441 
vn 0.0551181 0.874016 -0.488189 
vn 0 0.897638 -0.448819 
vn 0.0551181 0.889764 -0.448819 
vn 0 0.850394 -0.527559 
vn 0.0551181 0.850394 -0.519685 
vn -0.0551181 0.874016 -0.488189 
vn -0.0551181 0.889764 -0.448819 
vn 0 0.897638 -0.448819 
vn 0 0.850394 -0.527559 
vn -0.0551181 0.850394 -0.519685 
vn 0.15748 0.88189 -0.440945 
vn 0.173228 0.866142 -0.472441 
vn 0.0551181 0.874016 -0.488189 
vn 0 0.850394 -0.527559 
vn 0 0.874016 -0.488189 
vn 0 0.874016 -0.488189 
vn 0 0.897638 -0.448819 
vn -0.0551181 0.874016 -0.488189 
vn 0 0.897638 -0.448819 
vn 0 0.874016 -0.488189 
vn -0.15748 0.88189 -0.440945 
vn -0.173228 0.866142 -0.472441 
vn 0 0.850394 -0.527559 
vn 0 0.874016 -0.488189 
vn 0.15748 0.88189 -0.440945 
vn 0.0551181 0.874016 -0.488189 
vn 0.0551181 0.889764 -0.448819 
vn -0.15748 0.88189 -0.440945 
vn -0.0551181 0.889764 -0.448819 
vn -0.0551181 0.874016 -0.488189 
vn 0.944882 0.338583 0.00787402 
vn 0.968504 0.244094 0 
vn 0.944882 0.330709 0.00787402 
vn 0.913386 0.401575 0.00787402 
vn 0.937008 0.346457 0.00787402 
vn 0.937008 0.346457 0.00787402 
vn 0.913386 0.417323 0 
vn 0.944882 0.338583 0.00787402 
vn 0.913386 0.401575 0.00787402 
vn 0.897638 0.448819 0 
vn 0.874016 0.480315 0.00787402 
vn 0.874016 0.480315 0.00787402 
vn 0.850394 0.519685 0.015748 
vn 0.866142 0.503937 0 
vn 0.913386 0.401575 0.00787402 
vn 0.913386 0.401575 0.00787402 
vn 0.937008 0.346457 0.00787402 
vn 0.850394 0.519685 0 
vn 0.850394 0.519685 0 
vn 0.874016 0.496063 0 
vn 0.913386 0.401575 0.00787402 
vn 0.850394 0.527559 -0.00787402 
vn 0.850394 0.519685 0 
vn 0.866142 0.503937 0 
vn 0.850394 0.519685 0.015748 
vn 0.874016 0.480315 0.00787402 
vn 0.850394 0.519685 0.015748 
vn 0.84252 0.543307 0.015748 
vn 0.944882 0.330709 0.00787402 
vn 0.913386 0.401575 0.00787402 
vn 0.944882 0.338583 0.00787402 
vn 0.897638 0.448819 0 
vn 0.913386 0.417323 0 
vn 0.874016 0.480315 0.00787402 

vt 21.8973 -35.0892 
vt 21.6041 -35.074 
vt 21.63 -35.0829 
vt 22.4363 -35.0359 
vt 21.9139 -35.0898 
vt 22.4323 -35.1104 
vt 21.909 -35.0287 
vt 21.5935 -35.0571 
vt 21.8973 -35.0892 
vt 21.6134 -35.0249 
vt 21.9283 -34.9223 
vt 21.7365 -34.9209 
vt 21.9336 -34.8961 
vt 21.9413 -34.9229 
vt 22.4363 -35.0359 
vt 22.2252 -34.9215 
vt 22.0953 -34.9009 
vt 21.9462 -34.8967 
vt 21.924 -35.0292 
vt 22.4363 -35.0359 
vt 21.9139 -35.0898 
vt 21.9336 -34.8961 
vt 21.778 -34.8992 
vt 21.7365 -34.9209 
vt 21.8318 -34.893 
vt 21.6041 -35.074 
vt 21.8973 -35.0892 
vt 21.5935 -35.0571 
vt 21.909 -35.0287 
vt 21.6134 -35.0249 
vt 21.9283 -34.9223 
vt 22.0953 -34.9009 
vt 22.2252 -34.9215 
vt 22.187 -34.9113 
vt 22.2933 -35.4603 
vt 22.2287 -35.6066 
vt 22.3159 -35.5414 
vt 21.7067 -35.4603 
vt 21.6841 -35.5414 
vt 21.7713 -35.6066 
vt 22 -35.6203 
vt 22.2933 -35.4603 
vt 22 -35.4925 
vt 22 -35.6203 
vt 22 -35.4925 
vt 21.7067 -35.4603 
vt 22.2933 -35.4603 
vt 22.1287 -35.2836 
vt 22 -35.4925 
vt 21.7067 -35.4603 
vt 22 -35.4925 
vt 21.8713 -35.2836 
vt 22.3159 -35.5414 
vt 22.2287 -35.6066 
vt 22.3077 -35.586 
vt 21.6841 -35.5414 
vt 21.6923 -35.586 
vt 21.7713 -35.6066 
vt 22.2934 -34.4445 
vt 22.1925 -34.5281 
vt 22.2633 -34.556 
vt 21.7066 -34.4445 
vt 21.7367 -34.556 
vt 21.8075 -34.5281 
vt 22.1287 -35.2836 
vt 22 -35.2914 
vt 22 -35.4925 
vt 21.8713 -35.2836 
vt 22 -35.4925 
vt 22 -35.2914 
vt 22 -35.6203 
vt 22.2287 -35.6066 
vt 22.2933 -35.4603 
vt 22 -35.6203 
vt 21.7067 -35.4603 
vt 21.7713 -35.6066 
vt 22.1287 -35.2836 
vt 22.2933 -35.4603 
vt 22.2383 -35.2624 
vt 21.8713 -35.2836 
vt 21.7617 -35.2624 
vt 21.7067 -35.4603 
vt 22.2934 -34.4445 
vt 22.211 -34.3994 
vt 22.1925 -34.5281 
vt 21.7066 -34.4445 
vt 21.8075 -34.5281 
vt 21.789 -34.3994 
vt 22.234 -34.6702 
vt 22.2633 -34.556 
vt 22.1925 -34.5281 
vt 21.766 -34.6702 
vt 21.8075 -34.5281 
vt 21.7367 -34.556 
vt 22.0992 -34.3831 
vt 22.1925 -34.5281 
vt 22.211 -34.3994 
vt 22.0945 -34.5146 
vt 21.9008 -34.3831 
vt 21.8075 -34.5281 
vt 21.9055 -34.5146 
vt 21.789 -34.3994 
vt 22.234 -34.6702 
vt 22.1925 -34.5281 
vt 22.1741 -34.6548 
vt 21.766 -34.6702 
vt 21.8259 -34.6548 
vt 21.8075 -34.5281 
vt 22.0945 -34.5146 
vt 22 -34.6388 
vt 22.0897 -34.6423 
vt 22 -34.3797 
vt 22.0992 -34.3831 
vt 21.9055 -34.5146 
vt 21.9103 -34.6423 
vt 22 -34.6388 
vt 22 -34.3797 
vt 21.9008 -34.3831 
vt 22.1741 -34.6548 
vt 22.1925 -34.5281 
vt 22.0945 -34.5146 
vt 22 -34.3797 
vt 22 -34.5129 
vt 22 -34.5129 
vt 22 -34.6388 
vt 21.9055 -34.5146 
vt 22 -34.6388 
vt 22 -34.5129 
vt 21.8259 -34.6548 
vt 21.8075 -34.5281 
vt 22 -34.3797 
vt 22 -34.5129 
vt 22.1741 -34.6548 
vt 22.0945 -34.5146 
vt 22.0897 -34.6423 
vt 21.8259 -34.6548 
vt 21.9103 -34.6423 
vt 21.9055 -34.5146 
vt 22.1027 -35.0892 
vt 22.37 -35.0829 
vt 22.3959 -35.074 
vt 21.5637 -35.0359 
vt 21.5677 -35.1104 
vt 22.0861 -35.0898 
vt 22.091 -35.0287 
vt 22.1027 -35.0892 
vt 22.4065 -35.0571 
vt 22.3866 -35.0249 
vt 22.2635 -34.9209 
vt 22.0717 -34.9223 
vt 22.0664 -34.8961 
vt 22.0587 -34.9229 
vt 21.5637 -35.0359 
vt 22.076 -35.0292 
vt 22.0861 -35.0898 
vt 22.0538 -34.8967 
vt 21.9047 -34.9009 
vt 21.7748 -34.9215 
vt 21.5637 -35.0359 
vt 21.813 -34.9113 
vt 21.9047 -34.9009 
vt 22.0587 -34.9229 
vt 22.0664 -34.8961 
vt 22.2635 -34.9209 
vt 22.222 -34.8992 
vt 22.1682 -34.893 
vt 22.3959 -35.074 
vt 22.4065 -35.0571 
vt 22.1027 -35.0892 
vt 22.3866 -35.0249 
vt 22.091 -35.0287 
vt 22.0717 -34.9223 

usemtl Glass1Mtl

f 1/1/1 2/2/2 3/3/3 
f 4/4/4 5/5/5 6/6/6 
f 7/7/7 8/8/8 9/9/9 
f 10/10/10 11/11/11 12/12/12 
f 13/13/13 12/12/12 11/11/11 
f 14/14/14 15/15/15 16/16/16 
f 17/17/17 14/14/14 16/16/16 
f 14/14/14 17/17/17 18/18/18 
f 14/14/14 19/19/19 20/20/20 
f 20/20/20 19/19/19 21/21/21 
f 22/22/22 23/23/23 24/24/24 
f 23/23/23 22/22/22 25/25/25 
f 26/26/26 27/27/27 28/28/28 
f 28/28/28 29/29/29 30/30/30 
f 30/30/30 29/29/29 31/31/31 
f 32/32/32 33/33/33 34/34/34 
f 35/35/35 36/36/36 37/37/37 
f 38/38/38 39/39/39 40/40/40 
f 41/41/41 42/42/42 43/43/43 
f 44/44/44 45/45/45 46/46/46 
f 47/47/47 48/48/48 49/49/49 
f 50/50/50 51/51/51 52/52/52 
f 53/53/53 54/54/54 55/55/55 
f 56/56/56 57/57/57 58/58/58 
f 59/59/59 60/60/60 61/61/61 
f 62/62/62 63/63/63 64/64/64 
f 65/65/65 66/66/66 67/67/67 
f 68/68/68 69/69/69 70/70/70 
f 71/71/71 72/72/72 73/73/73 
f 74/74/74 75/75/75 76/76/76 
f 77/77/77 78/78/78 79/79/79 
f 80/80/80 81/81/81 82/82/82 
f 83/83/83 84/84/84 85/85/85 
f 86/86/86 87/87/87 88/88/88 
f 89/89/89 90/90/90 91/91/91 
f 92/92/92 93/93/93 94/94/94 
f 95/95/95 96/96/96 97/97/97 
f 95/95/95 98/98/98 96/96/96 
f 99/99/99 100/100/100 101/101/101 
f 99/99/99 102/102/102 100/100/100 
f 103/103/103 104/104/104 105/105/105 
f 106/106/106 107/107/107 108/108/108 
f 109/109/109 110/110/110 111/111/111 
f 112/112/112 109/109/109 113/113/113 
f 114/114/114 115/115/115 116/116/116 
f 117/117/117 118/118/118 114/114/114 
f 119/119/119 120/120/120 121/121/121 
f 122/122/122 123/123/123 121/121/121 
f 121/121/121 124/124/124 125/125/125 
f 126/126/126 127/127/127 128/128/128 
f 129/129/129 126/126/126 130/130/130 
f 131/131/131 126/126/126 132/132/132 
f 133/133/133 134/134/134 135/135/135 
f 136/136/136 137/137/137 138/138/138 
f 139/139/139 140/140/140 141/141/141 
f 142/142/142 143/143/143 144/144/144 
f 145/145/145 146/146/146 147/147/147 
f 148/148/148 149/149/149 150/150/150 
f 151/151/151 150/150/150 149/149/149 
f 152/152/152 153/153/153 154/154/154 
f 153/153/153 155/155/155 154/154/154 
f 152/152/152 156/156/156 157/157/157 
f 152/152/152 158/158/158 159/159/159 
f 152/152/152 160/160/160 158/158/158 
f 161/161/161 160/160/160 162/162/162 
f 163/163/163 164/164/164 165/165/165 
f 165/165/165 166/166/166 163/163/163 
f 167/167/167 168/168/168 169/169/169 
f 168/168/168 170/170/170 171/171/171 
f 170/170/170 172/172/172 171/171/171 

