# This file is brought to you by Roblox Corporation
# Generated by Roblox Studio

mtllib radio.mtl

g Radio1

v 0.407012 -0.0364169 2.23128 
v -0.410798 -0.0364217 2.2312 
v 0.40702 -0.26693 2.1567 
v -0.410789 -0.266934 2.15662 
v -0.410789 -0.00590998 2.1369 
v -0.410798 -0.0364217 2.2312 
v 0.407021 -0.00590518 2.13698 
v 0.407012 -0.0364169 2.23128 
v -0.410798 -0.0364217 2.2312 
v -0.410789 -0.00590998 2.1369 
v -0.410789 -0.266934 2.15662 
v -0.41078 -0.236423 2.06232 
v -0.410789 -0.00590998 2.1369 
v 0.407021 -0.00590518 2.13698 
v -0.41078 -0.236423 2.06232 
v 0.407029 -0.236418 2.0624 
v 0.407029 -0.236418 2.0624 
v 0.40702 -0.26693 2.1567 
v -0.41078 -0.236423 2.06232 
v -0.410789 -0.266934 2.15662 
v 0.407021 -0.00590518 2.13698 
v 0.407012 -0.0364169 2.23128 
v 0.407029 -0.236418 2.0624 
v 0.40702 -0.26693 2.1567 

vn 0 -0.307087 0.952756 
vn 0 -0.307087 0.952756 
vn 0 -0.307087 0.952756 
vn 0 -0.307087 0.952756 
vn 0 0.952756 0.307087 
vn 0 0.952756 0.307087 
vn 0 0.952756 0.307087 
vn 0 0.952756 0.307087 
vn -1 0 0 
vn -1 0 0 
vn -1 0 0 
vn -1 0 0 
vn 0 0.307087 -0.952756 
vn 0 0.307087 -0.952756 
vn 0 0.307087 -0.952756 
vn 0 0.307087 -0.952756 
vn 0 -0.952756 -0.307087 
vn 0 -0.952756 -0.307087 
vn 0 -0.952756 -0.307087 
vn 0 -0.952756 -0.307087 
vn 1 0 0 
vn 1 0 0 
vn 1 0 0 
vn 1 0 0 

vt 0.0835772 0.927973 
vt -0.018649 0.927973 
vt 0.0835772 0.897688 
vt -0.018649 0.897688 
vt -0.00625972 0.927973 
vt -0.018649 0.927973 
vt -0.00625972 0.825747 
vt -0.018649 0.825747 
vt -0.00625972 0.927973 
vt -0.018649 0.927973 
vt -0.00625972 0.897688 
vt -0.018649 0.897688 
vt 0.0835772 0.927973 
vt -0.018649 0.927973 
vt 0.0835772 0.897688 
vt -0.018649 0.897688 
vt -0.00625972 0.927973 
vt -0.018649 0.927973 
vt -0.00625972 0.825747 
vt -0.018649 0.825747 
vt -0.00625972 0.927973 
vt -0.018649 0.927973 
vt -0.00625972 0.897688 
vt -0.018649 0.897688 

usemtl Radio1Mtl

f 1/1/1 2/2/2 3/3/3 
f 3/3/3 2/2/2 4/4/4 
f 5/5/5 6/6/6 7/7/7 
f 7/7/7 6/6/6 8/8/8 
f 9/9/9 10/10/10 11/11/11 
f 11/11/11 10/10/10 12/12/12 
f 13/13/13 14/14/14 15/15/15 
f 15/15/15 14/14/14 16/16/16 
f 17/17/17 18/18/18 19/19/19 
f 19/19/19 18/18/18 20/20/20 
f 21/21/21 22/22/22 23/23/23 
f 23/23/23 22/22/22 24/24/24 

g Radio2

v -0.410789 -0.285989 2.15048 
v -0.41078 -0.255478 2.05618 
v 0.40702 -0.285985 2.15056 
v 0.407029 -0.255473 2.05626 

vn 0 -0.952756 -0.307087 
vn 0 -0.952756 -0.307087 
vn 0 -0.952756 -0.307087 
vn 0 -0.952756 -0.307087 

vt 1 1 
vt 0 1 
vt 1 0 
vt 0 0 

usemtl Radio2Mtl

f 25/25/25 26/26/26 27/27/27 
f 27/27/27 26/26/26 28/28/28 

g Radio3

v 0.407012 -0.0425586 2.25034 
v -0.410798 -0.0425634 2.25026 
v 0.40702 -0.273071 2.17575 
v -0.410789 -0.273076 2.17567 

vn 0 -0.307087 0.952756 
vn 0 -0.307087 0.952756 
vn 0 -0.307087 0.952756 
vn 0 -0.307087 0.952756 

vt 1 1 
vt 0 1 
vt 1 0 
vt 0 0 

usemtl Radio2Mtl

f 29/29/29 30/30/30 31/31/31 
f 31/31/31 30/30/30 32/32/32 

g Radio4

v 0.427021 -0.00590518 2.13698 
v 0.427012 -0.0364169 2.23128 
v 0.427029 -0.236418 2.0624 
v 0.42702 -0.26693 2.1567 

vn 1 0 0 
vn 1 0 0 
vn 1 0 0 
vn 1 0 0 

vt 1 1 
vt 0 1 
vt 1 0 
vt 0 0 

usemtl Radio2Mtl

f 33/33/33 34/34/34 35/35/35 
f 35/35/35 34/34/34 36/36/36 

g Radio5

v -0.410789 0.0131451 2.14304 
v -0.410798 -0.0173666 2.23735 
v 0.407021 0.0131499 2.14312 
v 0.407012 -0.0173618 2.23742 

vn 0 0.952756 0.307087 
vn 0 0.952756 0.307087 
vn 0 0.952756 0.307087 
vn 0 0.952756 0.307087 

vt 1 1 
vt 0 1 
vt 1 0 
vt 0 0 

usemtl Radio2Mtl

f 37/37/37 38/38/38 39/39/39 
f 39/39/39 38/38/38 40/40/40 

g Radio6

v -0.430798 -0.0364217 2.2312 
v -0.430789 -0.00590998 2.1369 
v -0.430789 -0.266934 2.15662 
v -0.43078 -0.236423 2.06232 

vn -1 0 0 
vn -1 0 0 
vn -1 0 0 
vn -1 0 0 

vt 1 1 
vt 0 1 
vt 1 0 
vt 0 0 

usemtl Radio2Mtl

f 41/41/41 42/42/42 43/43/43 
f 43/43/43 42/42/42 44/44/44 

g Radio7

v -0.410789 0.000231756 2.11785 
v 0.407021 0.000236551 2.11793 
v -0.41078 -0.230281 2.04326 
v 0.407029 -0.230276 2.04334 

vn 0 0.307087 -0.952756 
vn 0 0.307087 -0.952756 
vn 0 0.307087 -0.952756 
vn 0 0.307087 -0.952756 

vt 1 1 
vt 0 1 
vt 1 0 
vt 0 0 

usemtl Radio7Mtl

f 45/45/45 46/46/46 47/47/47 
f 47/47/47 46/46/46 48/48/48 

