# This file is brought to you by Roblox Corporation
# Generated by Roblox Studio

mtllib sl.mtl

g Sl1

v 6.97012e-05 0.973927 -8.16132 
v 0.582617 0.973927 -8.16132 
v 0.629318 0.94494 -8.13907 
v 0.629318 0.94494 -8.13907 
v 7.00455e-05 0.90146 -8.10346 
v 6.97012e-05 0.973927 -8.16132 
v -0.629182 0.94494 -8.13906 
v 6.97012e-05 0.973927 -8.16132 
v -0.629182 0.94494 -8.13906 
v -0.582482 0.973927 -8.16131 
v 7.00455e-05 0.90146 -8.10346 
v -0.63723 0.901863 -8.10791 
v 0.629318 0.94494 -8.13907 
v 0.637366 0.901863 -8.10792 
v 7.00455e-05 0.90146 -8.10346 

vn 0 -0.622047 -0.787402 
vn 0.834646 -0.299213 -0.464567 
vn 0.858268 -0.00787402 -0.503937 
vn 0.858268 -0.00787402 -0.503937 
vn 0 -0.622047 -0.787402 
vn 0 -0.622047 -0.787402 
vn -0.858268 -0.00787402 -0.503937 
vn 0 -0.622047 -0.787402 
vn -0.858268 -0.00787402 -0.503937 
vn -0.834646 -0.299213 -0.464567 
vn 0 -0.622047 -0.787402 
vn -0.858268 -0.00787402 -0.503937 
vn 0.858268 -0.00787402 -0.503937 
vn 0.858268 -0.00787402 -0.503937 
vn 0 -0.622047 -0.787402 

vt 0.4414 0.1025 
vt 0.4395 0.0137 
vt 0.4307 0.00880003 
vt 0.4307 0.00880003 
vt 0.415 0.1016 
vt 0.4414 0.1025 
vt 0.4307 0.1914 
vt 0.4414 0.1025 
vt 0.4307 0.1914 
vt 0.4395 0.1855 
vt 0.415 0.1016 
vt 0.415 0.1914 
vt 0.4307 0.00880003 
vt 0.415 0.00880003 
vt 0.415 0.1016 

usemtl Sl1Mtl

f 1/1/1 2/2/2 3/3/3 
f 4/4/4 5/5/5 6/6/6 
f 7/7/7 6/6/6 5/5/5 
f 8/8/8 9/9/9 10/10/10 
f 9/9/9 11/11/11 12/12/12 
f 13/13/13 14/14/14 15/15/15 

